<svg width="516" height="462" viewBox="0 0 516 462" fill="none" xmlns="http://www.w3.org/2000/svg">
<g clip-path="url(#clip0_320_12051)">
<path opacity="0.18" d="M285.413 0.224228C228.691 4.20792 193.708 54.8356 142.675 76.3321C119.749 85.9935 93.9191 89.5363 70.4031 98.0993C30.4023 112.657 -3.34746 146.345 0.263408 183.296C4.94483 231.193 65.5312 260.936 84.5744 306.164C89.8274 318.649 91.7508 332.016 97.1671 344.438C110.685 375.449 147.32 398.075 186.078 399.359C217.206 400.388 246.909 388.978 277.71 384.956C315.416 380.021 353.856 386.263 392.024 385.157C430.192 384.051 471.862 372.99 490.579 344.647C505.73 321.697 502.029 293.107 493.646 267.758C485.263 242.41 472.534 217.672 470.837 191.372C468.878 160.748 480.536 125.467 456.82 102.416C439.219 85.2664 406.713 81.2208 394.156 61.109C380.602 39.4501 375.848 36.5648 353.058 23.7241C330.522 10.9995 315.125 -1.86431 285.413 0.224228Z" fill="#68E1FD"/>
<path d="M431.979 44.6948H294.884C283.805 44.6948 274.824 52.352 274.824 61.7976V315.06C274.824 324.505 283.805 332.163 294.884 332.163H431.979C443.057 332.163 452.038 324.505 452.038 315.06V61.7976C452.038 52.352 443.057 44.6948 431.979 44.6948Z" fill="#68E1FD"/>
<path d="M444.754 66.261V307.974C444.752 312.214 442.775 316.278 439.258 319.275C435.742 322.272 430.973 323.956 426.001 323.956H300.864C295.895 323.951 291.131 322.266 287.618 319.27C284.106 316.273 282.131 312.211 282.129 307.974V66.2687C282.131 62.0301 284.107 57.9657 287.621 54.9678C291.135 51.97 295.901 50.2839 300.873 50.2798H319.925V51.5406C319.925 52.722 320.198 53.8919 320.728 54.9833C321.258 56.0748 322.036 57.0665 323.015 57.9019C323.995 58.7373 325.158 59.3999 326.439 59.852C327.719 60.3041 329.091 60.5368 330.476 60.5368H395.418C396.803 60.5378 398.176 60.3058 399.457 59.8541C400.737 59.4024 401.901 58.7397 402.881 57.9042C403.861 57.0686 404.638 56.0765 405.168 54.9845C405.698 53.8926 405.97 52.7223 405.969 51.5406V50.2798H426.01C430.98 50.2839 435.745 51.9689 439.259 54.9651C442.773 57.9613 444.749 62.0238 444.754 66.261Z" fill="#68E1FD"/>
<path opacity="0.81" d="M444.754 66.261V307.974C444.752 312.214 442.775 316.278 439.258 319.275C435.742 322.272 430.973 323.956 426.001 323.956H300.864C295.895 323.951 291.131 322.266 287.618 319.27C284.106 316.273 282.131 312.211 282.129 307.974V66.2687C282.131 62.0301 284.107 57.9657 287.621 54.9678C291.135 51.97 295.901 50.2839 300.873 50.2798H319.925V51.5406C319.925 52.722 320.198 53.8919 320.728 54.9833C321.258 56.0748 322.036 57.0665 323.015 57.9019C323.995 58.7373 325.158 59.3999 326.439 59.852C327.719 60.3041 329.091 60.5368 330.476 60.5368H395.418C396.803 60.5378 398.176 60.3058 399.457 59.8541C400.737 59.4024 401.901 58.7397 402.881 57.9042C403.861 57.0686 404.638 56.0765 405.168 54.9845C405.698 53.8926 405.97 52.7223 405.969 51.5406V50.2798H426.01C430.98 50.2839 435.745 51.9689 439.259 54.9651C442.773 57.9613 444.749 62.0238 444.754 66.261Z" fill="url(#paint0_linear_320_12051)"/>
<path opacity="0.17" d="M419.36 204.808H318.328C313.217 204.808 309.074 208.341 309.074 212.698V233.831C309.074 238.189 313.217 241.721 318.328 241.721H419.36C424.471 241.721 428.614 238.189 428.614 233.831V212.698C428.614 208.341 424.471 204.808 419.36 204.808Z" fill="white"/>
<path opacity="0.17" d="M419.36 256.743H318.328C313.217 256.743 309.074 260.276 309.074 264.633V285.766C309.074 290.124 313.217 293.656 318.328 293.656H419.36C424.471 293.656 428.614 290.124 428.614 285.766V264.633C428.614 260.276 424.471 256.743 419.36 256.743Z" fill="white"/>
<path d="M475.537 225.825L432.669 190.799C432.669 190.799 417.064 201.335 423.724 220.402C430.383 239.47 452.039 262.421 452.039 262.421V315.021C452.039 315.021 452.284 332.131 431.971 332.131H294.885C294.885 332.131 306.842 358.973 331.175 381.761C355.507 404.55 399.164 432.698 397.295 462H516C516 462 485.589 369.71 496.041 332.162C506.492 294.615 502.591 247.909 475.537 225.825Z" fill="url(#paint1_linear_320_12051)"/>
<path d="M294.087 153.848C289.75 152.943 278.881 146.553 270.026 139.723C264.401 135.391 259.584 130.882 257.76 127.478C253.061 118.722 252.235 99.5458 270.026 101.015C270.026 101.015 277.284 99.6077 294.087 120.965C310.889 142.322 301.181 155.333 294.087 153.848Z" fill="url(#paint2_linear_320_12051)"/>
<path d="M297.552 189.454C293.016 189.222 280.314 184.325 269.999 178.763C263.938 175.499 258.658 172.003 256.263 169.079C249.785 161.189 244.931 142.454 262.75 141.177C262.75 141.177 264.764 140.404 270.008 142.725C274.39 144.651 281.022 148.696 290.63 157.105C311.687 175.538 304.864 189.825 297.552 189.454Z" fill="url(#paint3_linear_320_12051)"/>
<path d="M286.501 235.788C283.489 235.092 276.603 230.644 270.025 225.291C263.674 220.147 257.677 214.168 255.636 209.89C251.463 201.149 250.193 181.834 264.944 182.987C264.944 182.987 266.514 182.577 270.025 185.06C273.337 187.381 278.381 192.331 285.448 202.635C300.028 223.853 292.398 237.142 286.501 235.788Z" fill="url(#paint4_linear_320_12051)"/>
<path d="M293.269 274.194C289.449 273.946 278.344 269.181 270.025 264.092C266.105 261.694 262.767 259.226 261.161 257.13C256.08 250.593 252.088 235.161 265.869 234.256C265.869 234.256 267.04 233.808 270.025 234.96C273.336 236.237 278.898 239.501 287.562 247.569C304.001 262.877 298.894 274.557 293.269 274.194Z" fill="url(#paint5_linear_320_12051)"/>
<path opacity="0.17" d="M419.36 100.938H318.328C313.217 100.938 309.074 104.471 309.074 108.829V129.961C309.074 134.319 313.217 137.851 318.328 137.851H419.36C424.471 137.851 428.614 134.319 428.614 129.961V108.829C428.614 104.471 424.471 100.938 419.36 100.938Z" fill="white"/>
<path opacity="0.17" d="M419.36 152.873H318.328C313.217 152.873 309.074 156.406 309.074 160.763V181.896C309.074 186.254 313.217 189.786 318.328 189.786H419.36C424.471 189.786 428.614 186.254 428.614 181.896V160.763C428.614 156.406 424.471 152.873 419.36 152.873Z" fill="white"/>
<path opacity="0.81" d="M270.026 101.015V139.692C264.401 135.36 259.584 130.851 257.76 127.447C253.097 118.722 252.235 99.5458 270.026 101.015Z" fill="url(#paint6_linear_320_12051)"/>
<path opacity="0.81" d="M270.026 142.717V178.763C263.966 175.499 258.685 172.003 256.29 169.079C249.812 161.189 244.959 142.454 262.777 141.177C262.777 141.177 264.791 140.435 270.026 142.717Z" fill="url(#paint7_linear_320_12051)"/>
<path opacity="0.81" d="M270.025 185.06V225.284C263.674 220.14 257.677 214.16 255.636 209.883C251.463 201.142 250.193 181.827 264.944 182.979C264.944 182.987 266.514 182.554 270.025 185.06Z" fill="url(#paint8_linear_320_12051)"/>
<path opacity="0.81" d="M270.025 234.96V264.092C266.105 261.694 262.767 259.226 261.161 257.13C256.08 250.593 252.088 235.161 265.869 234.256C265.869 234.256 267.04 233.808 270.025 234.96Z" fill="url(#paint9_linear_320_12051)"/>
<path d="M256.453 29.3944V329.007C256.454 331.251 255.937 333.474 254.93 335.548C253.924 337.622 252.448 339.507 250.587 341.094C248.725 342.682 246.516 343.941 244.084 344.8C241.651 345.66 239.045 346.102 236.412 346.102H69.6408C67.0082 346.102 64.4014 345.66 61.9693 344.8C59.5372 343.941 57.3275 342.682 55.4663 341.094C53.6052 339.507 52.1292 337.622 51.1226 335.548C50.1159 333.474 49.5984 331.251 49.5996 329.007V29.3944C49.5984 27.1498 50.1159 24.927 51.1226 22.853C52.1292 20.7789 53.6052 18.8943 55.4663 17.3068C57.3275 15.7193 59.5372 14.46 61.9693 13.6008C64.4014 12.7415 67.0082 12.2993 69.6408 12.2993H236.412C239.045 12.2993 241.651 12.7415 244.084 13.6008C246.516 14.46 248.725 15.7193 250.587 17.3068C252.448 18.8943 253.924 20.7789 254.93 22.853C255.937 24.927 256.454 27.1498 256.453 29.3944Z" fill="#68E1FD"/>
<path opacity="0.17" d="M100.751 12.2993V346.102H69.6408C67.0082 346.102 64.4014 345.66 61.9693 344.8C59.5372 343.941 57.3275 342.682 55.4663 341.094C53.6052 339.507 52.1292 337.622 51.1226 335.548C50.1159 333.474 49.5984 331.251 49.5996 329.007V29.3944C49.5984 27.1498 50.1159 24.927 51.1226 22.853C52.1292 20.7789 53.6052 18.8943 55.4663 17.3068C57.3275 15.7193 59.5372 14.46 61.9693 13.6008C64.4014 12.7415 67.0082 12.2993 69.6408 12.2993H100.751Z" fill="white"/>
<path opacity="0.19" d="M225.235 169.875V223.884C225.235 226.183 224.163 228.389 222.256 230.015C220.349 231.641 217.762 232.555 215.064 232.555H49.5996V161.212H215.064C216.4 161.211 217.722 161.434 218.956 161.869C220.19 162.304 221.311 162.942 222.255 163.747C223.2 164.551 223.949 165.507 224.46 166.558C224.972 167.61 225.235 168.737 225.235 169.875Z" fill="url(#paint10_linear_320_12051)"/>
<path d="M204.059 148.209H12.2836C6.66668 148.209 2.11328 152.091 2.11328 156.88V210.888C2.11328 215.677 6.66668 219.56 12.2836 219.56H204.059C209.676 219.56 214.229 215.677 214.229 210.888V156.88C214.229 152.091 209.676 148.209 204.059 148.209Z" fill="#68E1FD"/>
<path opacity="0.19" d="M216.162 81.9945H84.1384C82.8575 81.9945 81.6289 81.5612 80.7223 80.7896C79.8157 80.0181 79.3051 78.9714 79.3027 77.8793C79.3027 76.7858 79.8122 75.7371 80.7191 74.9639C81.6259 74.1907 82.8559 73.7563 84.1384 73.7563H216.162C217.444 73.7563 218.674 74.1907 219.581 74.9639C220.488 75.7371 220.997 76.7858 220.997 77.8793C220.997 78.4203 220.872 78.9561 220.629 79.4559C220.386 79.9557 220.03 80.4097 219.581 80.7919C219.131 81.1741 218.598 81.4771 218.012 81.6834C217.425 81.8898 216.796 81.9955 216.162 81.9945Z" fill="url(#paint11_linear_320_12051)"/>
<path opacity="0.19" d="M216.162 107.32H84.1384C82.8559 107.32 81.6259 106.885 80.7191 106.112C79.8122 105.339 79.3027 104.29 79.3027 103.197C79.3051 102.105 79.8157 101.058 80.7223 100.286C81.6289 99.5149 82.8575 99.0815 84.1384 99.0816H216.162C216.796 99.0805 217.425 99.1862 218.012 99.3926C218.598 99.5989 219.131 99.9019 219.581 100.284C220.03 100.666 220.386 101.12 220.629 101.62C220.872 102.12 220.997 102.656 220.997 103.197C220.997 104.29 220.488 105.339 219.581 106.112C218.674 106.885 217.444 107.32 216.162 107.32Z" fill="url(#paint12_linear_320_12051)"/>
<path opacity="0.19" d="M216.162 132.63H84.1384C82.8575 132.63 81.6289 132.196 80.7223 131.425C79.8157 130.653 79.3051 129.607 79.3027 128.515C79.3027 127.421 79.8122 126.372 80.7191 125.599C81.6259 124.826 82.8559 124.392 84.1384 124.392H216.162C217.444 124.392 218.674 124.826 219.581 125.599C220.488 126.372 220.997 127.421 220.997 128.515C220.997 129.056 220.872 129.591 220.629 130.091C220.386 130.591 220.03 131.045 219.581 131.427C219.131 131.809 218.598 132.112 218.012 132.319C217.425 132.525 216.796 132.631 216.162 132.63Z" fill="url(#paint13_linear_320_12051)"/>
<path opacity="0.19" d="M65.8029 166.31V199.161C65.8023 200.803 65.0583 202.38 63.7262 203.565C62.3941 204.75 60.5769 205.45 58.6537 205.52C58.545 205.528 58.4358 205.528 58.3271 205.52H19.7961C17.8134 205.52 15.9119 204.848 14.5099 203.653C13.1079 202.458 12.3203 200.836 12.3203 199.146V166.31C12.3203 165.473 12.5137 164.644 12.8895 163.872C13.2654 163.099 13.8162 162.396 14.5105 161.805C15.2048 161.214 16.029 160.745 16.9359 160.426C17.8429 160.106 18.8148 159.942 19.7961 159.943H58.3271C59.3084 159.942 60.2803 160.106 61.1873 160.426C62.0942 160.745 62.9184 161.214 63.6127 161.805C64.307 162.396 64.8578 163.099 65.2336 163.872C65.6094 164.644 65.8029 165.473 65.8029 166.31Z" fill="url(#paint14_linear_320_12051)"/>
<path opacity="0.17" d="M59.5073 200.531C59.5085 202.21 59.2212 203.881 58.6545 205.489C58.5458 205.497 58.4365 205.497 58.3279 205.489H20.0509C18.5489 201.225 19.0422 196.631 21.4272 192.671C23.8123 188.71 27.9038 185.692 32.8431 184.248C30.7713 183.249 29.1379 181.701 28.1907 179.84C27.2436 177.978 27.0342 175.904 27.5944 173.931C28.1546 171.959 29.4538 170.196 31.2951 168.91C33.1363 167.625 35.4191 166.886 37.7974 166.806C40.1756 166.726 42.5196 167.309 44.4739 168.467C46.4282 169.626 47.8861 171.296 48.6267 173.224C49.3674 175.153 49.3502 177.235 48.5779 179.154C47.8056 181.074 46.3202 182.726 44.3471 183.861C48.6873 184.808 52.5338 186.961 55.2791 189.98C58.0244 192.998 59.5121 196.711 59.5073 200.531Z" fill="white"/>
</g>
<defs>
<linearGradient id="paint0_linear_320_12051" x1="365.36" y1="-147.226" x2="363.19" y2="369.891" gradientUnits="userSpaceOnUse">
<stop/>
<stop offset="0.97" stop-opacity="0.1"/>
</linearGradient>
<linearGradient id="paint1_linear_320_12051" x1="294.885" y1="326.4" x2="516" y2="326.4" gradientUnits="userSpaceOnUse">
<stop stop-color="#ECC4D7"/>
<stop offset="0.42" stop-color="#EFD4D1"/>
<stop offset="1" stop-color="#F2EAC9"/>
</linearGradient>
<linearGradient id="paint2_linear_320_12051" x1="254.875" y1="127.447" x2="303.386" y2="127.447" gradientUnits="userSpaceOnUse">
<stop stop-color="#ECC4D7"/>
<stop offset="0.42" stop-color="#EFD4D1"/>
<stop offset="1" stop-color="#F2EAC9"/>
</linearGradient>
<linearGradient id="paint3_linear_320_12051" x1="250.411" y1="165.258" x2="304.728" y2="165.258" gradientUnits="userSpaceOnUse">
<stop stop-color="#ECC4D7"/>
<stop offset="0.42" stop-color="#EFD4D1"/>
<stop offset="1" stop-color="#F2EAC9"/>
</linearGradient>
<linearGradient id="paint4_linear_320_12051" x1="252.851" y1="209.411" x2="293.84" y2="209.411" gradientUnits="userSpaceOnUse">
<stop stop-color="#ECC4D7"/>
<stop offset="0.42" stop-color="#EFD4D1"/>
<stop offset="1" stop-color="#F2EAC9"/>
</linearGradient>
<linearGradient id="paint5_linear_320_12051" x1="256.452" y1="254.183" x2="298.694" y2="254.183" gradientUnits="userSpaceOnUse">
<stop stop-color="#ECC4D7"/>
<stop offset="0.42" stop-color="#EFD4D1"/>
<stop offset="1" stop-color="#F2EAC9"/>
</linearGradient>
<linearGradient id="paint6_linear_320_12051" x1="220.309" y1="121.986" x2="263.223" y2="119.976" gradientUnits="userSpaceOnUse">
<stop/>
<stop offset="0.97" stop-opacity="0.1"/>
</linearGradient>
<linearGradient id="paint7_linear_320_12051" x1="222.159" y1="161.436" x2="265.074" y2="159.426" gradientUnits="userSpaceOnUse">
<stop/>
<stop offset="0.97" stop-opacity="0.1"/>
</linearGradient>
<linearGradient id="paint8_linear_320_12051" x1="224.236" y1="205.566" x2="267.142" y2="203.556" gradientUnits="userSpaceOnUse">
<stop/>
<stop offset="0.97" stop-opacity="0.1"/>
</linearGradient>
<linearGradient id="paint9_linear_320_12051" x1="226.341" y1="250.562" x2="269.255" y2="248.542" gradientUnits="userSpaceOnUse">
<stop/>
<stop offset="0.97" stop-opacity="0.1"/>
</linearGradient>
<linearGradient id="paint10_linear_320_12051" x1="123.495" y1="179.738" x2="157.959" y2="248.874" gradientUnits="userSpaceOnUse">
<stop stop-color="#183866"/>
<stop offset="1" stop-color="#1A7FC1"/>
</linearGradient>
<linearGradient id="paint11_linear_320_12051" x1="142.012" y1="46.6672" x2="149.221" y2="84.7036" gradientUnits="userSpaceOnUse">
<stop stop-color="#183866"/>
<stop offset="1" stop-color="#1A7FC1"/>
</linearGradient>
<linearGradient id="paint12_linear_320_12051" x1="135.725" y1="47.8582" x2="142.934" y2="85.8945" gradientUnits="userSpaceOnUse">
<stop stop-color="#183866"/>
<stop offset="1" stop-color="#1A7FC1"/>
</linearGradient>
<linearGradient id="paint13_linear_320_12051" x1="129.438" y1="49.0495" x2="136.646" y2="87.0858" gradientUnits="userSpaceOnUse">
<stop stop-color="#183866"/>
<stop offset="1" stop-color="#1A7FC1"/>
</linearGradient>
<linearGradient id="paint14_linear_320_12051" x1="-48.6834" y1="182.708" x2="-48.3658" y2="182.708" gradientUnits="userSpaceOnUse">
<stop stop-color="#183866"/>
<stop offset="1" stop-color="#1A7FC1"/>
</linearGradient>
<clipPath id="clip0_320_12051">
<rect width="516" height="462" fill="white"/>
</clipPath>
</defs>
</svg>
