<svg width="48" height="35" viewBox="0 0 48 35" fill="none" xmlns="http://www.w3.org/2000/svg">
<path fill-rule="evenodd" clip-rule="evenodd" d="M37.2477 22.2197C37.2477 21.7794 36.8902 21.4219 36.4498 21.4219H13.7237C13.2833 21.4219 12.9258 21.7794 12.9258 22.2197V28.7995C12.9258 29.2398 13.2833 29.5973 13.7237 29.5973H36.4498C36.8902 29.5973 37.2477 29.2398 37.2477 28.7995V22.2197Z" fill="url(#paint0_linear_418_303)"/>
<path fill-rule="evenodd" clip-rule="evenodd" d="M35.8531 29.5973V22.8704H13.6405C13.3323 22.8704 13.082 22.6202 13.082 22.3119V21.9803C13.082 21.6722 13.3322 21.4219 13.6405 21.4219H36.4489C36.855 21.4219 37.1904 21.7258 37.2404 22.1182L37.2416 22.1281L37.2427 22.1382L37.2437 22.1483L37.2445 22.1584L37.2452 22.1685L37.2458 22.1787L37.2462 22.1889L37.2466 22.1991L37.2468 22.2094L37.2469 22.2197V28.7995C37.2469 29.2398 36.8893 29.5973 36.4489 29.5973H35.8531Z" fill="url(#paint1_linear_418_303)"/>
<path d="M16.0814 26.4929C16.4532 26.4929 16.7546 26.1915 16.7546 25.8197C16.7546 25.4479 16.4532 25.1465 16.0814 25.1465C15.7096 25.1465 15.4082 25.4479 15.4082 25.8197C15.4082 26.1915 15.7096 26.4929 16.0814 26.4929Z" fill="#53BA2F"/>
<path fill-rule="evenodd" clip-rule="evenodd" d="M33.7277 25.6726C33.7277 25.4965 33.5847 25.3535 33.4085 25.3535H19.0398C18.8637 25.3535 18.7207 25.4965 18.7207 25.6726V25.8621C18.7207 26.0383 18.8637 26.1813 19.0398 26.1813H33.4085C33.5847 26.1813 33.7277 26.0383 33.7277 25.8621V25.6726Z" fill="#F5F6FF"/>
<path fill-rule="evenodd" clip-rule="evenodd" d="M13.7237 21.4219H14.3744V28.2509H36.5845C36.8927 28.251 37.143 28.5012 37.143 28.8095V29.1435C37.143 29.1624 37.142 29.181 37.1402 29.1993C37.002 29.4372 36.7445 29.5973 36.4498 29.5973H13.7237C13.2833 29.5973 12.9258 29.2398 12.9258 28.7995V22.2197C12.9258 21.7794 13.2833 21.4219 13.7237 21.4219Z" fill="url(#paint2_radial_418_303)"/>
<path fill-rule="evenodd" clip-rule="evenodd" d="M37.2477 14.0107C37.2477 13.5704 36.8902 13.2129 36.4498 13.2129H13.7237C13.2833 13.2129 12.9258 13.5704 12.9258 14.0107V20.5905C12.9258 21.0308 13.2833 21.3883 13.7237 21.3883H36.4498C36.8902 21.3883 37.2477 21.0308 37.2477 20.5905V14.0107Z" fill="url(#paint3_linear_418_303)"/>
<path fill-rule="evenodd" clip-rule="evenodd" d="M35.8531 21.3883V14.6614H13.6405C13.3323 14.6614 13.082 14.4112 13.082 14.103V13.7714C13.082 13.4631 13.3322 13.2129 13.6405 13.2129H36.4489C36.855 13.2129 37.1904 13.5167 37.2404 13.9091L37.2416 13.9191L37.2427 13.9292L37.2437 13.9392L37.2445 13.9494L37.2452 13.9595L37.2458 13.9697L37.2462 13.9799L37.2466 13.9902L37.2468 14.0004L37.2469 14.0107V20.5905C37.2469 21.0308 36.8893 21.3883 36.4489 21.3883H35.8531Z" fill="url(#paint4_linear_418_303)"/>
<path d="M16.0814 18.2839C16.4532 18.2839 16.7546 17.9825 16.7546 17.6107C16.7546 17.2389 16.4532 16.9375 16.0814 16.9375C15.7096 16.9375 15.4082 17.2389 15.4082 17.6107C15.4082 17.9825 15.7096 18.2839 16.0814 18.2839Z" fill="#53BA2F"/>
<path fill-rule="evenodd" clip-rule="evenodd" d="M33.7277 17.4636C33.7277 17.2875 33.5847 17.1445 33.4085 17.1445H19.0398C18.8637 17.1445 18.7207 17.2875 18.7207 17.4636V17.6532C18.7207 17.8293 18.8637 17.9723 19.0398 17.9723H33.4085C33.5847 17.9723 33.7277 17.8293 33.7277 17.6532V17.4636Z" fill="#F5F6FF"/>
<path fill-rule="evenodd" clip-rule="evenodd" d="M13.7237 13.2129H14.3744V20.0419H36.5845C36.8927 20.042 37.143 20.2922 37.143 20.6004V20.9346C37.143 20.9534 37.142 20.972 37.1402 20.9904C37.002 21.2282 36.7445 21.3883 36.4498 21.3883H13.7237C13.2833 21.3883 12.9258 21.0308 12.9258 20.5905V14.0107C12.9258 13.5704 13.2833 13.2129 13.7237 13.2129Z" fill="url(#paint5_radial_418_303)"/>
<path fill-rule="evenodd" clip-rule="evenodd" d="M37.2477 5.88963C37.2477 5.44927 36.8902 5.0918 36.4498 5.0918H13.7237C13.2833 5.0918 12.9258 5.44927 12.9258 5.88963V12.4694C12.9258 12.9097 13.2833 13.2672 13.7237 13.2672H36.4498C36.8902 13.2672 37.2477 12.9097 37.2477 12.4694V5.88963Z" fill="url(#paint6_linear_418_303)"/>
<path fill-rule="evenodd" clip-rule="evenodd" d="M35.8531 13.2672V6.54042H13.6405C13.3323 6.54042 13.082 6.29015 13.082 5.98186V5.65027C13.082 5.34208 13.3322 5.0918 13.6405 5.0918H36.4489C36.855 5.0918 37.1904 5.39567 37.2404 5.78812L37.2416 5.79812L37.2427 5.80813L37.2437 5.81822L37.2445 5.82832L37.2452 5.83841L37.2458 5.8486L37.2462 5.85879L37.2466 5.86907L37.2468 5.87935L37.2469 5.88963V12.4694C37.2469 12.9097 36.8893 13.2672 36.4489 13.2672H35.8531Z" fill="url(#paint7_linear_418_303)"/>
<path d="M16.0814 10.1628C16.4532 10.1628 16.7546 9.86139 16.7546 9.4896C16.7546 9.1178 16.4532 8.81641 16.0814 8.81641C15.7096 8.81641 15.4082 9.1178 15.4082 9.4896C15.4082 9.86139 15.7096 10.1628 16.0814 10.1628Z" fill="#53BA2F"/>
<path fill-rule="evenodd" clip-rule="evenodd" d="M33.7277 9.34264C33.7277 9.16643 33.5847 9.02344 33.4085 9.02344H19.0398C18.8637 9.02344 18.7207 9.16643 18.7207 9.34264V9.53207C18.7207 9.70819 18.8637 9.85119 19.0398 9.85119H33.4085C33.5847 9.85119 33.7277 9.70819 33.7277 9.53207V9.34264Z" fill="#F5F6FF"/>
<path fill-rule="evenodd" clip-rule="evenodd" d="M13.7237 5.0918H14.3744V11.9208H36.5845C36.8927 11.9209 37.143 12.1711 37.143 12.4794V12.8135C37.143 12.8323 37.142 12.8509 37.1402 12.8694C37.002 13.1072 36.7445 13.2672 36.4498 13.2672H13.7237C13.2833 13.2672 12.9258 12.9097 12.9258 12.4694V5.88963C12.9258 5.44937 13.2833 5.0918 13.7237 5.0918Z" fill="url(#paint8_radial_418_303)"/>
<path fill-rule="evenodd" clip-rule="evenodd" d="M12.8742 26.4045C12.8549 26.4269 12.8295 26.4417 12.8042 26.4453C12.7881 26.4476 12.7728 26.4453 12.7598 26.4389C12.7525 26.4352 12.7459 26.4303 12.7404 26.424L10.7121 24.1511C10.6946 24.1316 10.6912 24.1017 10.7026 24.0714C10.714 24.0412 10.739 24.0147 10.7688 24.0009L15.3319 21.8882L10.2424 23.5258C10.2105 23.5362 10.18 23.53 10.1622 23.5096L8.53821 21.6303C8.51958 21.6087 8.52141 21.5745 8.5427 21.5435C8.56418 21.5126 8.60071 21.4912 8.63558 21.489L17.3985 20.9719C17.4278 20.9698 17.4541 20.9853 17.4656 21.0111C17.4769 21.0367 17.4714 21.068 17.4513 21.0913L12.8742 26.4045ZM10.4784 24.5801L11.0237 25.2039C11.0404 25.2229 11.0449 25.2514 11.036 25.2812C11.0273 25.311 11.006 25.3387 10.9786 25.3559L9.29024 26.4263C9.25756 26.4471 9.22269 26.4508 9.19754 26.438C9.19047 26.4344 9.18433 26.4296 9.17919 26.4238C9.15505 26.3955 9.15808 26.3475 9.18644 26.3057L10.3301 24.6161C10.3484 24.5889 10.3766 24.5687 10.406 24.5615C10.4352 24.5542 10.4624 24.561 10.4784 24.5801Z" fill="#0084FF"/>
<path d="M17.4524 19.8841C18.7693 19.9664 18.7455 21.2366 18.2833 21.794L13.692 27.1235C13.35 27.5045 13.1731 27.5108 12.8751 27.532C12.5597 27.5544 12.2364 27.4423 12.0042 27.2264C11.9685 27.1933 11.9653 27.1888 11.9354 27.1564L11.2984 26.4425L9.85076 27.3599C9.33635 27.6639 8.57936 27.5399 8.24024 26.9762C8.00859 26.5911 8.02364 26.0967 8.28035 25.7032L9.30789 24.1852L7.70535 22.3309C7.70535 22.3309 7.50803 22.0491 7.46196 21.832C7.32457 21.1835 7.83293 20.4726 8.5309 20.4056C8.54136 20.4046 8.55183 20.404 8.5622 20.4031L17.3392 19.8852C17.4198 19.881 17.4256 19.8835 17.4524 19.8841ZM17.4017 20.9718C14.4779 21.1308 11.5521 21.2624 8.63277 21.4894C8.56412 21.4971 8.49905 21.5768 8.53696 21.6283C9.06285 22.2701 9.60581 22.8981 10.1645 23.5116C10.1852 23.5324 10.2165 23.5341 10.2429 23.5259L15.3324 21.8883C13.8094 22.5933 12.2592 23.2423 10.7638 24.0038C10.7517 24.0103 10.7409 24.0183 10.7315 24.0278C10.7018 24.0579 10.6809 24.1113 10.711 24.1493C11.374 24.9209 12.0535 25.6785 12.743 26.4265C12.7779 26.4607 12.834 26.4467 12.871 26.4087C14.4329 24.6645 16.0193 22.9361 17.4555 21.087C17.4862 21.0447 17.4661 20.9707 17.4017 20.9718ZM10.4252 24.5589C10.3876 24.561 10.3541 24.5837 10.3323 24.6137C9.94327 25.1747 9.55845 25.7387 9.18436 26.3097C9.14279 26.3775 9.21722 26.4695 9.2877 26.4284C9.857 26.0759 10.4306 25.7294 10.9842 25.3527C10.9925 25.3468 11.0002 25.3402 11.0071 25.3326C11.0362 25.3009 11.0555 25.2471 11.0273 25.2077C10.8556 24.9874 10.6682 24.7792 10.4758 24.5768C10.4621 24.5636 10.4441 24.5584 10.4252 24.5589Z" fill="#F5F6FF"/>
<path fill-rule="evenodd" clip-rule="evenodd" d="M41.8375 11.377C41.8368 11.3663 40.7486 18.8003 33.3003 23.4373C15.3808 34.5933 4.96495 32.9067 2.62305 29.2171C3.11388 30.8584 5.23313 33.9843 14.0958 32.965C22.1077 32.0436 32.2736 26.4443 37.1031 21.7407C39.8478 19.0674 42.0238 13.9979 41.8375 11.377Z" fill="#70D1FF"/>
<path fill-rule="evenodd" clip-rule="evenodd" d="M15.7565 30.0495C15.7565 30.0495 14.0475 30.5599 9.90685 30.4599C4.21495 30.3224 0.745913 26.1777 1.67994 23.8271C1.02538 24.8474 1.06154 26.2796 2.20996 27.998C3.35976 29.7187 6.1411 31.2464 10.1121 31.2805C11.7855 31.2949 13.8655 31.118 15.7565 30.0495Z" fill="#CCE6FF"/>
<path fill-rule="evenodd" clip-rule="evenodd" d="M20.6128 20.7688C20.7199 20.8062 20.7763 20.9232 20.7389 21.0301C20.7015 21.1371 20.5845 21.1936 20.4775 21.1562C20.3705 21.1189 20.314 21.0018 20.3514 20.8948C20.3887 20.7879 20.5058 20.7315 20.6128 20.7688ZM24.4815 19.1856C24.7757 19.2883 24.931 19.6101 24.8282 19.9043C24.7254 20.1984 24.4036 20.3536 24.1092 20.2508C23.815 20.1481 23.6597 19.8264 23.7625 19.5322C23.8653 19.2381 24.1871 19.0829 24.4815 19.1856ZM26.2047 17.8314C26.5793 17.9622 26.7769 18.3717 26.6461 18.746C26.5153 19.1204 26.1056 19.3179 25.7309 19.1872C25.3564 19.0564 25.1588 18.6469 25.2897 18.2725C25.4205 17.8982 25.8302 17.7006 26.2047 17.8314ZM20.6982 18.191C20.832 18.2377 20.9026 18.3839 20.8559 18.5176C20.8092 18.6513 20.6629 18.7219 20.5291 18.6752C20.3952 18.6285 20.3247 18.4823 20.3714 18.3485C20.4182 18.2148 20.5645 18.1442 20.6982 18.191Z" fill="#0084FF"/>
<path fill-rule="evenodd" clip-rule="evenodd" d="M22.6428 20.3942C22.2783 20.5508 21.8558 20.3824 21.6991 20.018C21.5426 19.6537 21.7111 19.2314 22.0756 19.0748C22.4401 18.9182 22.8626 19.0867 23.0192 19.451C23.1758 19.8154 23.0073 20.2377 22.6428 20.3942ZM22.9978 18.2321C22.7114 18.3551 22.3795 18.2228 22.2564 17.9365C22.1333 17.6502 22.2658 17.3185 22.5521 17.1954C22.8386 17.0724 23.1705 17.2047 23.2936 17.491C23.4167 17.7773 23.2842 18.1091 22.9978 18.2321ZM26.4593 16.4105C26.3291 16.4664 26.1782 16.4063 26.1223 16.2761C26.0663 16.146 26.1265 15.9952 26.2567 15.9392C26.3869 15.8833 26.5378 15.9435 26.5938 16.0737C26.6496 16.2037 26.5894 16.3546 26.4593 16.4105ZM24.7798 14.4523C24.6756 14.497 24.5549 14.4489 24.5101 14.3448C24.4654 14.2407 24.5135 14.1201 24.6177 14.0753C24.7218 14.0306 24.8425 14.0787 24.8873 14.1829C24.932 14.2869 24.8839 14.4076 24.7798 14.4523Z" fill="#0084FF"/>
<path d="M39.923 11.7932L41.3706 10.3529C44.5985 7.14101 45.1698 3.82882 45.2674 2.58358C45.2782 2.44903 45.2286 2.31669 45.1331 2.22014C45.0371 2.12359 44.904 2.07393 44.7683 2.08311C43.5093 2.16911 40.1516 2.71051 36.9201 5.92596L35.473 7.36596L35.023 7.27666C34.1554 7.10512 33.2621 7.37266 32.6402 7.99152L30.9132 9.70997C30.8111 9.81148 30.7734 9.96273 30.8162 10.1009C30.8591 10.2404 30.9756 10.345 31.118 10.3741L32.573 10.6705C32.9813 10.754 33.3571 10.9549 33.6528 11.2491L34.2974 11.8904L35.3753 12.963L36.0195 13.6039C36.3152 13.8982 36.5178 14.2722 36.6014 14.6796L36.8991 16.1264C36.9285 16.2683 37.0335 16.3841 37.1735 16.4266C37.3133 16.4688 37.4647 16.4319 37.5667 16.3304L39.2938 14.6118C39.9153 13.9934 40.1841 13.1045 40.0122 12.241L39.923 11.7932Z" fill="#0BBC00"/>
<path d="M44.8201 1.11336C45.5902 1.12988 46.2782 1.82712 46.2358 2.62357C46.1804 3.66645 45.9057 4.71437 45.5378 5.71439C44.7989 7.72222 43.5573 9.53979 42.0545 11.0398L40.9745 12.1144C40.9836 12.1652 40.9835 12.1652 40.9917 12.2182C41.1539 13.3206 40.786 14.4757 39.9972 15.2793C39.4161 15.8623 38.8303 16.4405 38.2469 17.0211C37.6071 17.6458 36.3461 17.4304 36.0078 16.5242C35.9862 16.4664 35.9692 16.407 35.9549 16.3469C35.8485 15.8502 35.7565 15.3505 35.6475 14.8545C35.5375 14.3763 35.0764 14.0333 34.6916 13.6504C34.112 13.0738 33.54 12.4898 32.9539 11.9217C32.7995 11.7751 32.6068 11.6723 32.3994 11.6249C31.5265 11.4335 30.5367 11.4122 30.084 10.779C29.7189 10.2683 29.7643 9.50822 30.2133 9.0397C30.7954 8.44929 31.3865 7.86787 31.9764 7.28526C32.7995 6.48487 34.0068 6.11151 35.1547 6.31563C36.5945 4.88306 38.0824 3.48767 39.8638 2.55318C41.3448 1.77628 42.9791 1.24754 44.634 1.12153C44.6937 1.11694 44.7122 1.11263 44.8201 1.11336ZM44.7935 2.08245C43.9225 2.10035 43.0597 2.32676 42.2212 2.6021C40.2222 3.25877 38.4151 4.4439 36.92 5.9264L35.4728 7.3664C34.4743 7.16815 33.4188 7.23488 32.6547 7.97745C32.0703 8.55446 31.4853 9.13092 30.9082 9.71518C30.7176 9.91517 30.8231 10.3065 31.1112 10.3731C32.0174 10.5665 32.9847 10.6027 33.6388 11.2358C34.4411 12.0269 35.2393 12.821 36.0331 13.6182C36.6448 14.2438 36.7043 15.2281 36.9003 16.1335C36.9642 16.4059 37.3493 16.536 37.5617 16.3355C38.1489 15.7614 38.7283 15.1793 39.3081 14.5978C39.9055 13.9892 40.1779 13.092 40.0121 12.2415L39.9229 11.7936C40.984 10.7378 42.0779 9.71638 42.9472 8.51316C44.2088 6.76699 45.0966 4.7074 45.2672 2.58402C45.2864 2.32419 45.0573 2.08061 44.7935 2.08245Z" fill="#F5F6FF"/>
<path fill-rule="evenodd" clip-rule="evenodd" d="M33.0566 10.0839L35.417 7.62207C35.417 7.62207 36.4702 7.87455 37.3669 8.75048C38.2635 9.62641 39.5517 11.4883 39.6247 12.0329C39.6976 12.5776 37.5194 14.1363 37.1616 14.1871" fill="url(#paint9_linear_418_303)"/>
<path fill-rule="evenodd" clip-rule="evenodd" d="M34.4931 11.5201C34.4931 11.5201 32.7808 10.2645 33.4669 9.9814C34.1529 9.69826 37.6411 12.7467 37.4693 13.4691C37.2974 14.1914 35.7688 13.2532 34.4931 11.5201Z" fill="#008C00"/>
<path fill-rule="evenodd" clip-rule="evenodd" d="M29.2799 14.3886C30.0164 14.3886 30.6143 14.986 30.6143 15.7218C30.6143 16.4576 30.0164 17.0549 29.2799 17.0549C28.5432 17.0549 27.9453 16.4576 27.9453 15.7218C27.9453 14.986 28.5432 14.3886 29.2799 14.3886ZM31.7863 12.4484C31.694 12.2954 31.6417 12.1166 31.6417 11.9257C31.6417 11.3598 32.1015 10.9004 32.6678 10.9004C33.0158 10.9004 33.3236 11.0739 33.5084 11.3392C33.6179 11.3198 33.7312 11.31 33.8467 11.31C34.9513 11.31 35.848 12.2061 35.848 13.3098C35.848 14.4136 34.9513 15.3096 33.8467 15.3096C33.4876 15.3096 33.1504 15.2148 32.859 15.0484C32.7901 15.4314 32.4547 15.7218 32.0521 15.7218C31.5991 15.7218 31.2312 15.3541 31.2312 14.9013C31.2312 14.8294 31.2405 14.7597 31.259 14.6933C30.6184 14.6813 30.1019 14.1578 30.1019 13.5146C30.1019 12.8638 30.6308 12.3353 31.2823 12.3353C31.4626 12.3353 31.6335 12.3759 31.7863 12.4484Z" fill="#0084FF"/>
<path fill-rule="evenodd" clip-rule="evenodd" d="M36.5215 8.26561C36.5215 8.26561 38.7388 9.27306 39.5209 11.4203C44.0674 8.32866 44.7187 3.8653 45.0751 2.94238" fill="url(#paint10_linear_418_303)"/>
<path fill-rule="evenodd" clip-rule="evenodd" d="M35.2121 7.72475L32.9544 10.1866C32.9544 10.1866 30.9566 10.2911 31.2097 9.98148C32.7659 8.07791 33.5374 7.0633 35.2121 7.72475Z" fill="url(#paint11_linear_418_303)"/>
<path fill-rule="evenodd" clip-rule="evenodd" d="M39.2136 10.6996C39.2136 10.6996 38.2624 8.45824 36.1348 7.62214C39.3427 3.15787 43.8231 2.62069 44.7553 2.28809" fill="url(#paint12_linear_418_303)"/>
<path fill-rule="evenodd" clip-rule="evenodd" d="M37.6738 8.95575C37.6738 8.95575 39.8458 8.38278 39.7264 9.46861C39.5799 10.801 35.3263 13.9738 35.2109 13.8795C34.741 13.4959 34.2981 13.3372 34.2872 13.0589C34.2763 12.7805 35.1382 12.0333 35.9292 11.1099C36.2152 10.7761 37.6738 8.95575 37.6738 8.95575Z" fill="#009F00"/>
<path fill-rule="evenodd" clip-rule="evenodd" d="M38.9057 9.16133C38.9057 9.16133 35.0455 13.0663 34.6981 13.1619C34.3506 13.2576 37.5716 9.36654 37.5716 9.36654C37.5716 9.36654 38.6198 8.88838 38.9057 9.16133Z" fill="#CCE6FF" fill-opacity="0.529"/>
<path fill-rule="evenodd" clip-rule="evenodd" d="M39.4199 12.0332L37.1621 14.3925L37.2647 16.0338C37.2647 16.0338 39.4781 14.3498 39.7278 13.3667C39.9774 12.3837 39.4199 12.0332 39.4199 12.0332Z" fill="url(#paint13_linear_418_303)"/>
<defs>
<linearGradient id="paint0_linear_418_303" x1="28.1606" y1="25.9481" x2="26.9696" y2="35.5491" gradientUnits="userSpaceOnUse">
<stop stop-color="#CCE6FF"/>
<stop offset="0.47" stop-color="#9CD1FF"/>
<stop offset="1" stop-color="#1D98FF"/>
</linearGradient>
<linearGradient id="paint1_linear_418_303" x1="25.4099" y1="26.1306" x2="28.9992" y2="14.2165" gradientUnits="userSpaceOnUse">
<stop stop-color="#CCE6FF" stop-opacity="0.62"/>
<stop offset="0.18" stop-color="#E2F1FF" stop-opacity="0.62"/>
<stop offset="0.39" stop-color="#F6FBFF" stop-opacity="0.62"/>
<stop offset="1" stop-color="white" stop-opacity="0.62"/>
</linearGradient>
<radialGradient id="paint2_radial_418_303" cx="0" cy="0" r="1" gradientUnits="userSpaceOnUse" gradientTransform="translate(20.5228 38.5947) scale(21.0801)">
<stop stop-color="#2884FB" stop-opacity="0.639"/>
<stop offset="0.52" stop-color="#4F9AFB" stop-opacity="0.489"/>
<stop offset="1" stop-color="#D0E4FC" stop-opacity="0"/>
</radialGradient>
<linearGradient id="paint3_linear_418_303" x1="28.1592" y1="17.7424" x2="26.9683" y2="27.3434" gradientUnits="userSpaceOnUse">
<stop stop-color="#CCE6FF"/>
<stop offset="0.47" stop-color="#9CD1FF"/>
<stop offset="1" stop-color="#1D98FF"/>
</linearGradient>
<linearGradient id="paint4_linear_418_303" x1="25.3986" y1="17.9277" x2="28.9879" y2="6.01363" gradientUnits="userSpaceOnUse">
<stop stop-color="#CCE6FF" stop-opacity="0.62"/>
<stop offset="0.18" stop-color="#E2F1FF" stop-opacity="0.62"/>
<stop offset="0.39" stop-color="#F6FBFF" stop-opacity="0.62"/>
<stop offset="1" stop-color="white" stop-opacity="0.62"/>
</linearGradient>
<radialGradient id="paint5_radial_418_303" cx="0" cy="0" r="1" gradientUnits="userSpaceOnUse" gradientTransform="translate(20.5228 30.3857) scale(21.0801)">
<stop stop-color="#2884FB" stop-opacity="0.639"/>
<stop offset="0.52" stop-color="#4F9AFB" stop-opacity="0.489"/>
<stop offset="1" stop-color="#D0E4FC" stop-opacity="0"/>
</radialGradient>
<linearGradient id="paint6_linear_418_303" x1="28.1619" y1="9.61848" x2="26.971" y2="19.2195" gradientUnits="userSpaceOnUse">
<stop stop-color="#CCE6FF"/>
<stop offset="0.47" stop-color="#9CD1FF"/>
<stop offset="1" stop-color="#1D98FF"/>
</linearGradient>
<linearGradient id="paint7_linear_418_303" x1="25.4077" y1="9.802" x2="28.9971" y2="-2.11208" gradientUnits="userSpaceOnUse">
<stop stop-color="#CCE6FF" stop-opacity="0.62"/>
<stop offset="0.18" stop-color="#E2F1FF" stop-opacity="0.62"/>
<stop offset="0.39" stop-color="#F6FBFF" stop-opacity="0.62"/>
<stop offset="1" stop-color="white" stop-opacity="0.62"/>
</linearGradient>
<radialGradient id="paint8_radial_418_303" cx="0" cy="0" r="1" gradientUnits="userSpaceOnUse" gradientTransform="translate(20.5228 22.2646) scale(21.0801)">
<stop stop-color="#2884FB" stop-opacity="0.639"/>
<stop offset="0.52" stop-color="#4F9AFB" stop-opacity="0.489"/>
<stop offset="1" stop-color="#D0E4FC" stop-opacity="0"/>
</radialGradient>
<linearGradient id="paint9_linear_418_303" x1="32.8461" y1="7.27788" x2="36.0327" y2="11.1981" gradientUnits="userSpaceOnUse">
<stop stop-color="white"/>
<stop offset="1" stop-color="white" stop-opacity="0"/>
</linearGradient>
<linearGradient id="paint10_linear_418_303" x1="42.3923" y1="10.0874" x2="39.7932" y2="6.23208" gradientUnits="userSpaceOnUse">
<stop stop-color="#008E00"/>
<stop offset="1" stop-color="#008E00" stop-opacity="0"/>
</linearGradient>
<linearGradient id="paint11_linear_418_303" x1="31.7912" y1="7.44548" x2="33.6848" y2="9.70714" gradientUnits="userSpaceOnUse">
<stop stop-color="white"/>
<stop offset="1" stop-color="white" stop-opacity="0"/>
</linearGradient>
<linearGradient id="paint12_linear_418_303" x1="36.8398" y1="3.31501" x2="40.5391" y2="6.73869" gradientUnits="userSpaceOnUse">
<stop stop-color="white"/>
<stop offset="1" stop-color="white" stop-opacity="0"/>
</linearGradient>
<linearGradient id="paint13_linear_418_303" x1="39.8935" y1="14.9776" x2="37.8937" y2="11.9117" gradientUnits="userSpaceOnUse">
<stop stop-color="#008C00" stop-opacity="0.329"/>
<stop offset="1" stop-color="#008C00" stop-opacity="0"/>
</linearGradient>
</defs>
</svg>
