<svg width="18" height="17" viewBox="0 0 18 17" fill="none" xmlns="http://www.w3.org/2000/svg">
<path d="M1.92857 0.5C1.41708 0.5 0.926543 0.710714 0.564866 1.08579C0.203188 1.46086 0 1.96957 0 2.5V6.5C0 7.03043 0.203188 7.53914 0.564866 7.91421C0.926543 8.28929 1.41708 8.5 1.92857 8.5H16.0714C16.5829 8.5 17.0735 8.28929 17.4351 7.91421C17.7968 7.53914 18 7.03043 18 6.5V2.5C18 1.96957 17.7968 1.46086 17.4351 1.08579C17.0735 0.710714 16.5829 0.5 16.0714 0.5H1.92857ZM1.92857 11.1667C1.41708 11.1667 0.926543 11.3774 0.564866 11.7525C0.203188 12.1275 0 12.6362 0 13.1667V14.5C0 15.0304 0.203188 15.5391 0.564866 15.9142C0.926543 16.2893 1.41708 16.5 1.92857 16.5H5.78571C6.2972 16.5 6.78774 16.2893 7.14942 15.9142C7.5111 15.5391 7.71429 15.0304 7.71429 14.5V13.1667C7.71429 12.6362 7.5111 12.1275 7.14942 11.7525C6.78774 11.3774 6.2972 11.1667 5.78571 11.1667H1.92857ZM12.2143 11.1667C11.7028 11.1667 11.2123 11.3774 10.8506 11.7525C10.4889 12.1275 10.2857 12.6362 10.2857 13.1667V14.5C10.2857 15.0304 10.4889 15.5391 10.8506 15.9142C11.2123 16.2893 11.7028 16.5 12.2143 16.5H16.0714C16.5829 16.5 17.0735 16.2893 17.4351 15.9142C17.7968 15.5391 18 15.0304 18 14.5V13.1667C18 12.6362 17.7968 12.1275 17.4351 11.7525C17.0735 11.3774 16.5829 11.1667 16.0714 11.1667H12.2143Z" fill="#FEFEFE"/>
</svg>
