<svg width="28" height="28" viewBox="0 0 28 28" fill="none" xmlns="http://www.w3.org/2000/svg">
<g clip-path="url(#clip0_320_12265)">
<path d="M26.2031 12.1649H6.1318L14.9006 3.1603C15.6014 2.44067 15.6014 1.25974 14.9006 0.540107C14.7344 0.36905 14.5369 0.23334 14.3196 0.140745C14.1022 0.0481494 13.8692 0.000488281 13.6338 0.000488281C13.3985 0.000488281 13.1655 0.0481494 12.9481 0.140745C12.7307 0.23334 12.5333 0.36905 12.367 0.540107L0.525491 12.7C0.358913 12.8707 0.226756 13.0735 0.136585 13.2967C0.0464141 13.5199 0 13.7592 0 14.0009C0 14.2425 0.0464141 14.4818 0.136585 14.7051C0.226756 14.9283 0.358913 15.131 0.525491 15.3018L12.367 27.4617C12.5334 27.6325 12.7309 27.768 12.9482 27.8604C13.1656 27.9529 13.3986 28.0005 13.6338 28.0005C13.8691 28.0005 14.1021 27.9529 14.3194 27.8604C14.5368 27.768 14.7343 27.6325 14.9006 27.4617C15.067 27.2908 15.199 27.088 15.289 26.8648C15.379 26.6416 15.4254 26.4024 15.4254 26.1608C15.4254 25.9192 15.379 25.68 15.289 25.4568C15.199 25.2336 15.067 25.0307 14.9006 24.8599L6.1318 15.8553H26.2031C27.1914 15.8553 28 15.025 28 14.0101C28 12.9952 27.1914 12.1649 26.2031 12.1649Z" fill="#010101"/>
</g>
<defs>
<clipPath id="clip0_320_12265">
<rect width="28" height="28" fill="white"/>
</clipPath>
</defs>
</svg>
