<svg width="24" height="25" viewBox="0 0 24 25" fill="none" xmlns="http://www.w3.org/2000/svg">
<path d="M9.12606 3H14.7357C14.9222 3 15.0652 3 15.1906 3.01264C16.0811 3.10449 16.81 3.66568 17.1194 4.42153H6.74237C7.05178 3.66568 7.78071 3.10449 8.67118 3.01264C8.79495 3 8.938 3 9.12606 3ZM7.35798 5.2945C6.24087 5.2945 5.32468 6.00232 5.01929 6.94102C5.01259 6.96058 5.00616 6.98024 5 7C5.31986 6.89888 5.65339 6.83147 5.99013 6.78681C6.85809 6.66969 7.95591 6.66969 9.23054 6.66969H14.7695C16.0441 6.66969 17.1411 6.66969 18.0099 6.78681C18.3474 6.83231 18.6801 6.89804 19 7C18.9942 6.98023 18.988 6.96057 18.9815 6.94102C18.6761 6.00232 17.7599 5.2945 16.642 5.2945H7.35798Z" fill="#FEFEFE"/>
<path fill-rule="evenodd" clip-rule="evenodd" d="M9.00512 8H14.9956C18.0322 8 19.5514 8 20.4046 8.95573C21.2569 9.91147 21.0562 11.3872 20.6548 14.3396L20.275 17.14C19.96 19.4553 19.8025 20.6134 18.9952 21.3067C18.1879 22 16.9972 22 14.6148 22H9.38583C7.00442 22 5.81281 22 5.00551 21.3067C4.1982 20.6134 4.0407 19.4553 3.7257 17.14L3.3459 14.3406C2.9436 11.3872 2.7429 9.91147 3.5961 8.95573C4.4493 8 5.96851 8 9.00512 8ZM8.40032 18.1267C8.40032 17.7258 8.73602 17.4005 9.15002 17.4005H14.8507C15.2647 17.4005 15.6004 17.7258 15.6004 18.1267C15.6004 18.5276 15.2647 18.853 14.8507 18.853H9.15002C8.73602 18.853 8.40032 18.5276 8.40032 18.1267Z" fill="#FEFEFE"/>
</svg>
