<svg width="20" height="19" viewBox="0 0 20 19" fill="none" xmlns="http://www.w3.org/2000/svg">
<path fill-rule="evenodd" clip-rule="evenodd" d="M11.2281 0.904891C10.877 0.642474 10.4449 0.5 10.0001 0.5C9.5553 0.5 9.12319 0.642474 8.7721 0.904891L0.388104 7.16964C-0.363896 7.73366 0.0501037 8.89149 1.0031 8.89149H2.0951L2.9151 16.7695C2.96445 17.2437 3.19541 17.6833 3.56314 18.0031C3.93087 18.3229 4.40914 18.5 4.9051 18.5H15.0951C15.5911 18.5 16.0693 18.3229 16.4371 18.0031C16.8048 17.6833 17.0358 17.2437 17.0851 16.7695L17.9051 8.89149H18.9971C19.9491 8.89149 20.3651 7.73366 19.6121 7.1706L11.2281 0.904891ZM10.0001 13.6957C10.7958 13.6957 11.5588 13.392 12.1214 12.8515C12.684 12.3109 13.0001 11.5777 13.0001 10.8132C13.0001 10.0487 12.684 9.3155 12.1214 8.77492C11.5588 8.23433 10.7958 7.93064 10.0001 7.93064C9.20445 7.93064 8.44139 8.23433 7.87878 8.77492C7.31617 9.3155 7.0001 10.0487 7.0001 10.8132C7.0001 11.5777 7.31617 12.3109 7.87878 12.8515C8.44139 13.392 9.20445 13.6957 10.0001 13.6957Z" fill="#0E1A87"/>
</svg>
