<svg width="32" height="32" viewBox="0 0 32 32" fill="none" xmlns="http://www.w3.org/2000/svg">
<path d="M16.12 23.643L16 23.7629L15.868 23.643C10.168 18.4757 6.4 15.0589 6.4 11.594C6.4 9.19619 8.2 7.39782 10.6 7.39782C12.448 7.39782 14.248 8.59673 14.884 10.2272H17.116C17.752 8.59673 19.552 7.39782 21.4 7.39782C23.8 7.39782 25.6 9.19619 25.6 11.594C25.6 15.0589 21.832 18.4757 16.12 23.643ZM21.4 5C19.312 5 17.308 5.97112 16 7.49373C14.692 5.97112 12.688 5 10.6 5C6.904 5 4 7.88937 4 11.594C4 16.1139 8.08 19.8185 14.26 25.4174L16 27L17.74 25.4174C23.92 19.8185 28 16.1139 28 11.594C28 7.88937 25.096 5 21.4 5Z" fill="#010101"/>
</svg>
