<svg width="22" height="23" viewBox="0 0 22 23" fill="none" xmlns="http://www.w3.org/2000/svg">
<path d="M14.3904 14.89C14.9754 14.303 15.0544 13.433 14.5664 12.944C14.0784 12.456 13.2074 12.535 12.6214 13.121C12.0364 13.707 11.1654 13.786 10.6774 13.298C10.1894 12.81 10.2684 11.939 10.8544 11.354M10.8544 11.354L10.5004 11M10.8544 11.354C11.1854 11.022 11.6074 10.854 12.0004 10.857M14.7434 15.243L14.3894 14.889C13.9894 15.29 13.4544 15.454 13.0004 15.36M7.60742 10.379C8.00298 10.379 8.38966 10.2617 8.71856 10.042C9.04746 9.82221 9.30381 9.50985 9.45518 9.1444C9.60656 8.77894 9.64616 8.37681 9.56899 7.98885C9.49182 7.60089 9.30134 7.24452 9.02164 6.96482C8.74193 6.68511 8.38556 6.49463 7.9976 6.41746C7.60964 6.34029 7.20751 6.37989 6.84206 6.53127C6.4766 6.68265 6.16425 6.93899 5.94448 7.26789C5.72472 7.59679 5.60742 7.98347 5.60742 8.37903" stroke="black" stroke-width="1.5" stroke-linecap="round"/>
<path d="M15.1372 4.22799C13.5912 2.68299 12.8192 1.90999 11.8162 1.62299C10.8132 1.33499 9.74825 1.58099 7.61925 2.07299L6.39125 2.35599C4.59925 2.76899 3.70325 2.97599 3.08925 3.58899C2.47625 4.20299 2.26925 5.09899 1.85625 6.89099L1.57225 8.11899C1.08125 10.249 0.835245 11.313 1.12225 12.316C1.41025 13.319 2.18325 14.091 3.72825 15.636L5.55825 17.466C8.24825 20.157 9.59225 21.5 11.2622 21.5C12.9332 21.5 14.2772 20.155 16.9662 17.466C19.6572 14.777 21.0002 13.433 21.0002 11.762C21.0002 10.42 20.1322 9.28799 18.3962 7.49999" stroke="black" stroke-width="1.5" stroke-linecap="round"/>
</svg>
