<svg width="22" height="24" viewBox="0 0 22 24" fill="none" xmlns="http://www.w3.org/2000/svg">
<path d="M18.3333 24C17.3148 24 16.4491 23.65 15.7361 22.95C15.0231 22.25 14.6667 21.4 14.6667 20.4C14.6667 20.26 14.6769 20.1148 14.6972 19.9644C14.7176 19.814 14.7481 19.6792 14.7889 19.56L6.17222 14.64C5.82593 14.94 5.43889 15.1752 5.01111 15.3456C4.58333 15.516 4.13519 15.6008 3.66667 15.6C2.64815 15.6 1.78241 15.25 1.06944 14.55C0.356481 13.85 0 13 0 12C0 11 0.356481 10.15 1.06944 9.45C1.78241 8.75 2.64815 8.4 3.66667 8.4C4.13519 8.4 4.58333 8.4852 5.01111 8.6556C5.43889 8.826 5.82593 9.0608 6.17222 9.36L14.7889 4.44C14.7481 4.32 14.7176 4.1852 14.6972 4.0356C14.6769 3.886 14.6667 3.7408 14.6667 3.6C14.6667 2.6 15.0231 1.75 15.7361 1.05C16.4491 0.35 17.3148 0 18.3333 0C19.3519 0 20.2176 0.35 20.9306 1.05C21.6435 1.75 22 2.6 22 3.6C22 4.6 21.6435 5.45 20.9306 6.15C20.2176 6.85 19.3519 7.2 18.3333 7.2C17.8648 7.2 17.4167 7.1152 16.9889 6.9456C16.5611 6.776 16.1741 6.5408 15.8278 6.24L7.21111 11.16C7.25185 11.28 7.28241 11.4152 7.30278 11.5656C7.32315 11.716 7.33333 11.8608 7.33333 12C7.33333 12.14 7.32315 12.2852 7.30278 12.4356C7.28241 12.586 7.25185 12.7208 7.21111 12.84L15.8278 17.76C16.1741 17.46 16.5611 17.2252 16.9889 17.0556C17.4167 16.886 17.8648 16.8008 18.3333 16.8C19.3519 16.8 20.2176 17.15 20.9306 17.85C21.6435 18.55 22 19.4 22 20.4C22 21.4 21.6435 22.25 20.9306 22.95C20.2176 23.65 19.3519 24 18.3333 24Z" fill="#010101"/>
</svg>
